<svg aria-hidden="true" style="position: absolute; width: 0; height: 0; overflow: hidden;" version="1.1" xmlns="http://www.w3.org/2000/svg" xmlns:xlink="http://www.w3.org/1999/xlink">
    <defs>
        <symbol id="iconsun" viewBox="0 0 32 32">
            <path fill="currentColor" d="M16 26c1.105 0 2 0.895 2 2v2c0 1.105-0.895 2-2 2s-2-0.895-2-2v-2c0-1.105 0.895-2 2-2zM16 6c-1.105 0-2-0.895-2-2v-2c0-1.105 0.895-2 2-2s2 0.895 2 2v2c0 1.105-0.895 2-2 2zM30 14c1.105 0 2 0.895 2 2s-0.895 2-2 2h-2c-1.105 0-2-0.895-2-2s0.895-2 2-2h2zM6 16c0 1.105-0.895 2-2 2h-2c-1.105 0-2-0.895-2-2s0.895-2 2-2h2c1.105 0 2 0.895 2 2zM25.899 23.071l1.414 1.414c0.781 0.781 0.781 2.047 0 2.828s-2.047 0.781-2.828 0l-1.414-1.414c-0.781-0.781-0.781-2.047 0-2.828s2.047-0.781 2.828 0zM6.101 8.929l-1.414-1.414c-0.781-0.781-0.781-2.047 0-2.828s2.047-0.781 2.828 0l1.414 1.414c0.781 0.781 0.781 2.047 0 2.828s-2.047 0.781-2.828 0zM25.899 8.929c-0.781 0.781-2.047 0.781-2.828 0s-0.781-2.047 0-2.828l1.414-1.414c0.781-0.781 2.047-0.781 2.828 0s0.781 2.047 0 2.828l-1.414 1.414zM6.101 23.071c0.781-0.781 2.047-0.781 2.828 0s0.781 2.047 0 2.828l-1.414 1.414c-0.781 0.781-2.047 0.781-2.828 0s-0.781-2.047 0-2.828l1.414-1.414z"></path>
            <path fill="currentColor" d="M16 8c-4.418 0-8 3.582-8 8s3.582 8 8 8c4.418 0 8-3.582 8-8s-3.582-8-8-8zM16 21c-2.761 0-5-2.239-5-5s2.239-5 5-5 5 2.239 5 5-2.239 5-5 5z"></path>
        </symbol>
        <symbol id="iconmoon" viewBox="0 0 32 32">
            <path fill="currentColor" d="M17.701 32a15.97 15.97 0 0012.429-5.925c.442-.544-.04-1.339-.723-1.209-7.763 1.478-14.891-4.474-14.891-12.31 0-4.514 2.416-8.665 6.344-10.9.605-.345.453-1.262-.235-1.389-.879-.17-1.89-.267-2.923-.268-8.832 0-16 7.157-16 16 0 8.832 7.157 16 16 16z"/>
        </symbol>
        <symbol id="icon-arrow-right" viewBox="0 0 32 32">
            <path d="M19.414 27.414l10-10c0.781-0.781 0.781-2.047 0-2.828l-10-10c-0.781-0.781-2.047-0.781-2.828 0s-0.781 2.047 0 2.828l6.586 6.586h-19.172c-1.105 0-2 0.895-2 2s0.895 2 2 2h19.172l-6.586 6.586c-0.39 0.39-0.586 0.902-0.586 1.414s0.195 1.024 0.586 1.414c0.781 0.781 2.047 0.781 2.828 0z"></path>
        </symbol>
        <symbol id="icon-arrow-left" viewBox="0 0 32 32">
            <path d="M12.586 27.414l-10-10c-0.781-0.781-0.781-2.047 0-2.828l10-10c0.781-0.781 2.047-0.781 2.828 0s0.781 2.047 0 2.828l-6.586 6.586h19.172c1.105 0 2 0.895 2 2s-0.895 2-2 2h-19.172l6.586 6.586c0.39 0.39 0.586 0.902 0.586 1.414s-0.195 1.024-0.586 1.414c-0.781 0.781-2.047 0.781-2.828 0z"></path>
        </symbol>
        <symbol id="icon-arrow-down" viewBox="0 0 32 32">
            <path d="M31.68 8.593l-1.603-1.603c-0.214-0.214-0.46-0.321-0.738-0.321s-0.523 0.107-0.737 0.321l-12.602 12.601-12.601-12.601c-0.214-0.214-0.46-0.321-0.738-0.321s-0.524 0.107-0.738 0.321l-1.603 1.603c-0.214 0.214-0.321 0.46-0.321 0.738s0.107 0.524 0.321 0.737l14.942 14.942c0.214 0.214 0.46 0.321 0.738 0.321s0.523-0.107 0.737-0.321l14.943-14.942c0.214-0.214 0.32-0.46 0.32-0.737s-0.106-0.524-0.32-0.738z"></path>
        </symbol>
        <symbol id="icon-close" viewBox="0 0 32 32">
            <path d="M23.733 10.304l-1.504-1.504-5.963 5.963-5.963-5.963-1.504 1.504 5.963 5.963-5.963 5.963 1.504 1.504 5.963-5.963 5.963 5.963 1.504-1.504-5.963-5.963 5.963-5.963z"></path>
        </symbol>
        <symbol id="icon-film" viewBox="0 0 32 32">
            <path fill="none" stroke="#818181" style="stroke: var(--color1, #818181)" stroke-linejoin="round" stroke-linecap="round" stroke-miterlimit="4" stroke-width="2.6667" d="M26.427 2.667h-20.853c-1.605 0-2.907 1.301-2.907 2.907v20.853c0 1.605 1.301 2.907 2.907 2.907h20.853c1.605 0 2.907-1.301 2.907-2.907v-20.853c0-1.605-1.301-2.907-2.907-2.907z"></path>
            <path fill="none" stroke="#818181" style="stroke: var(--color1, #818181)" stroke-linejoin="round" stroke-linecap="round" stroke-miterlimit="4" stroke-width="2.6667" d="M9.333 2.667v26.667"></path>
            <path fill="none" stroke="#818181" style="stroke: var(--color1, #818181)" stroke-linejoin="round" stroke-linecap="round" stroke-miterlimit="4" stroke-width="2.6667" d="M22.667 2.667v26.667"></path>
            <path fill="none" stroke="#818181" style="stroke: var(--color1, #818181)" stroke-linejoin="round" stroke-linecap="round" stroke-miterlimit="4" stroke-width="2.6667" d="M2.667 16h26.667"></path>
            <path fill="none" stroke="#818181" style="stroke: var(--color1, #818181)" stroke-linejoin="round" stroke-linecap="round" stroke-miterlimit="4" stroke-width="2.6667" d="M2.667 9.333h6.667"></path>
            <path fill="none" stroke="#818181" style="stroke: var(--color1, #818181)" stroke-linejoin="round" stroke-linecap="round" stroke-miterlimit="4" stroke-width="2.6667" d="M2.667 22.667h6.667"></path>
            <path fill="none" stroke="#818181" style="stroke: var(--color1, #818181)" stroke-linejoin="round" stroke-linecap="round" stroke-miterlimit="4" stroke-width="2.6667" d="M22.667 22.667h6.667"></path>
            <path fill="none" stroke="#818181" style="stroke: var(--color1, #818181)" stroke-linejoin="round" stroke-linecap="round" stroke-miterlimit="4" stroke-width="2.6667" d="M22.667 9.333h6.667"></path>
        </symbol>
        <symbol id="icon-heart" viewBox="0 0 32 32">
            <path fill="#ff6b08" style="fill: var(--color2, #ff6b08)" d="M16 30.583l-2.24-2.24c-8.32-7.36-13.76-12.32-13.76-18.4 0-4.96 3.84-8.8 8.8-8.8 2.72 0 5.44 1.28 7.2 3.36 1.76-2.080 4.48-3.36 7.2-3.36 4.96 0 8.8 3.84 8.8 8.8 0 6.080-5.44 11.040-13.76 18.4l-2.24 2.24z"></path>
        </symbol>
        <symbol id="icon-search" viewBox="0 0 32 32">
            <path fill="none" stroke="#fff" style="stroke: var(--color3, #fff)" stroke-linejoin="round" stroke-linecap="round" stroke-miterlimit="4" stroke-width="2.6667" d="M14.667 25.333c5.891 0 10.667-4.776 10.667-10.667s-4.776-10.667-10.667-10.667c-5.891 0-10.667 4.776-10.667 10.667s4.776 10.667 10.667 10.667z"></path>
            <path fill="none" stroke="#fff" style="stroke: var(--color3, #fff)" stroke-linejoin="round" stroke-linecap="round" stroke-miterlimit="4" stroke-width="2.6667" d="M28 28.001l-5.8-5.8"></path>
        </symbol>
                <symbol id="icon-instagram" viewBox="0 0 32 32">
            <path  d="M31.968 9.408c-.074-1.701-.349-2.869-.744-3.882a7.84 7.84 0 00-1.847-2.837l-.001-.001A7.906 7.906 0 0026.598.861l-.054-.018C25.523.449 24.362.176 22.661.101 20.949.019 20.405 0 16.059 0c-4.344 0-4.888.019-6.595.094-1.701.074-2.869.349-3.88.742a7.847 7.847 0 00-2.839 1.85l-.001.001A7.9 7.9 0 00.919 5.465l-.018.054C.506 6.538.232 7.7.157 9.401c-.082 1.712-.101 2.256-.101 6.602 0 4.344.019 4.888.094 6.595.075 1.701.35 2.869.744 3.882a7.915 7.915 0 001.849 2.837l.001.001c.8.813 1.77 1.443 2.832 1.843 1.019.395 2.182.67 3.882.744 1.707.075 2.251.094 6.595.094 4.346 0 4.89-.019 6.595-.094 1.701-.074 2.869-.349 3.882-.742a8.237 8.237 0 004.664-4.628l.019-.055c.394-1.019.669-2.182.744-3.882.075-1.707.093-2.251.093-6.595s-.006-4.888-.08-6.595zm-2.88 13.066c-.07 1.563-.333 2.406-.552 2.97a5.336 5.336 0 01-3.001 3.024l-.036.013c-.563.219-1.413.482-2.97.55-1.688.075-2.194.094-6.464.094-4.269 0-4.782-.019-6.464-.094-1.563-.069-2.406-.331-2.97-.55a4.953 4.953 0 01-1.836-1.192l-.001-.001a4.978 4.978 0 01-1.184-1.803l-.011-.034c-.218-.563-.48-1.413-.549-2.97-.075-1.688-.094-2.195-.094-6.464 0-4.27.019-4.784.094-6.464.069-1.563.331-2.406.549-2.97a4.897 4.897 0 011.198-1.837l.002-.002a4.972 4.972 0 011.806-1.182l.034-.011c.56-.219 1.411-.48 2.968-.55 1.688-.074 2.194-.093 6.464-.093 4.275 0 4.782.019 6.464.093 1.562.069 2.406.331 2.97.55a4.91 4.91 0 011.837 1.194c.531.52.938 1.144 1.195 1.84.218.56.48 1.411.549 2.968.075 1.688.094 2.194.094 6.464 0 4.269-.019 4.768-.094 6.458z"/>
            <path  d="M16.059 7.782a8.223 8.223 0 00-8.219 8.221v.002a8.222 8.222 0 1016.444 0 8.222 8.222 0 00-8.222-8.222h-.002zm0 13.552a5.333 5.333 0 01.001-10.666h.001a5.334 5.334 0 110 10.668zM26.525 7.458a1.92 1.92 0 01-3.84 0 1.92 1.92 0 013.84 0z"/>
        </symbol>
        <symbol id="icon-facebook" viewBox="0 0 32 32">
            <path  d="M21.328 5.312h2.923V.224A36.483 36.483 0 0020.143 0h-.156.008c-4.213 0-7.099 2.65-7.099 7.52V12H8.25v5.688h4.646V32h5.699V17.69h4.459l.707-5.688h-5.168V8.08c0-1.643.443-2.768 2.734-2.768z"/>
        </symbol>
        <symbol id="icon-github" viewBox="0 0 32 32">
            <path d="M16 0.395c-8.836 0-16 7.163-16 16 0 7.069 4.585 13.067 10.942 15.182 0.8 0.148 1.094-0.347 1.094-0.77 0-0.381-0.015-1.642-0.022-2.979-4.452 0.968-5.391-1.888-5.391-1.888-0.728-1.849-1.776-2.341-1.776-2.341-1.452-0.993 0.11-0.973 0.11-0.973 1.606 0.113 2.452 1.649 2.452 1.649 1.427 2.446 3.743 1.739 4.656 1.33 0.143-1.034 0.558-1.74 1.016-2.14-3.554-0.404-7.29-1.777-7.29-7.907 0-1.747 0.625-3.174 1.649-4.295-0.166-0.403-0.714-2.030 0.155-4.234 0 0 1.344-0.43 4.401 1.64 1.276-0.355 2.645-0.532 4.005-0.539 1.359 0.006 2.729 0.184 4.008 0.539 3.054-2.070 4.395-1.64 4.395-1.64 0.871 2.204 0.323 3.831 0.157 4.234 1.026 1.12 1.647 2.548 1.647 4.295 0 6.145-3.743 7.498-7.306 7.895 0.574 0.497 1.085 1.47 1.085 2.963 0 2.141-0.019 3.864-0.019 4.391 0 0.426 0.288 0.925 1.099 0.768 6.354-2.118 10.933-8.113 10.933-15.18 0-8.837-7.164-16-16-16z"></path>
        </symbol>
        <symbol id="icon-reply" viewBox="0 0 32 32">
            <path d="M14 24.238v7.762l-12-12 12-12v7.932c13.961 0.327 13.362-9.493 9.808-15.932 8.772 9.482 6.909 24.674-9.808 24.238z"></path>
        </symbol>
        <symbol id="icon-telegram" viewBox="0 0 32 32">
            <path d="M16 0c-8.838 0-16 7.162-16 16s7.162 16 16 16 16-7.163 16-16-7.163-16-16-16zM23.863 10.969l-2.625 12.369c-0.181 0.881-0.712 1.087-1.45 0.681l-4-2.956-1.919 1.869c-0.225 0.219-0.4 0.4-0.8 0.4-0.519 0-0.431-0.194-0.606-0.688l-1.363-4.475-3.956-1.231c-0.856-0.262-0.862-0.85 0.194-1.269l15.412-5.95c0.7-0.319 1.381 0.169 1.113 1.25z"></path>
        </symbol>
        <symbol id="icon-cross" viewBox="0 0 32 32">
            <path d="M31.708 25.708c-0-0-0-0-0-0l-9.708-9.708 9.708-9.708c0-0 0-0 0-0 0.105-0.105 0.18-0.227 0.229-0.357 0.133-0.356 0.057-0.771-0.229-1.057l-4.586-4.586c-0.286-0.286-0.702-0.361-1.057-0.229-0.13 0.048-0.252 0.124-0.357 0.228 0 0-0 0-0 0l-9.708 9.708-9.708-9.708c-0-0-0-0-0-0-0.105-0.104-0.227-0.18-0.357-0.228-0.356-0.133-0.771-0.057-1.057 0.229l-4.586 4.586c-0.286 0.286-0.361 0.702-0.229 1.057 0.049 0.13 0.124 0.252 0.229 0.357 0 0 0 0 0 0l9.708 9.708-9.708 9.708c-0 0-0 0-0 0-0.104 0.105-0.18 0.227-0.229 0.357-0.133 0.355-0.057 0.771 0.229 1.057l4.586 4.586c0.286 0.286 0.702 0.361 1.057 0.229 0.13-0.049 0.252-0.124 0.357-0.229 0-0 0-0 0-0l9.708-9.708 9.708 9.708c0 0 0 0 0 0 0.105 0.105 0.227 0.18 0.357 0.229 0.356 0.133 0.771 0.057 1.057-0.229l4.586-4.586c0.286-0.286 0.362-0.702 0.229-1.057-0.049-0.13-0.124-0.252-0.229-0.357z"></path>
        </symbol>
        <symbol id="icon-circle-right" viewBox="0 0 32 32">
            <path d="M16 0c-8.837 0-16 7.163-16 16s7.163 16 16 16 16-7.163 16-16-7.163-16-16-16zM16 29c-7.18 0-13-5.82-13-13s5.82-13 13-13 13 5.82 13 13-5.82 13-13 13z"></path>
            <path d="M11.086 22.086l2.829 2.829 8.914-8.914-8.914-8.914-2.828 2.828 6.086 6.086z"></path>
        </symbol>
        <symbol id="icon-phone" viewBox="0 0 32 32">
          <path d="M22 20c-2 2-2 4-4 4s-4-2-6-4-4-4-4-6 2-2 4-4-4-8-6-8-6 6-6 6c0 4 4.109 12.109 8 16s12 8 16 8c0 0 6-4 6-6s-6-8-8-6z"></path>
        </symbol>
        <symbol id="icon-envelop" viewBox="0 0 32 32">
          <path d="M29 4h-26c-1.65 0-3 1.35-3 3v20c0 1.65 1.35 3 3 3h26c1.65 0 3-1.35 3-3v-20c0-1.65-1.35-3-3-3zM12.461 17.199l-8.461 6.59v-15.676l8.461 9.086zM5.512 8h20.976l-10.488 7.875-10.488-7.875zM12.79 17.553l3.21 3.447 3.21-3.447 6.58 8.447h-19.579l6.58-8.447zM19.539 17.199l8.461-9.086v15.676l-8.461-6.59z"></path>
        </symbol>
        <symbol id="icon-folder-download" viewBox="0 0 32 32">
        <path d="M18 8l-4-4h-14v26h32v-22h-14zM16 27l-7-7h5v-8h4v8h5l-7 7z"></path>
        </symbol>
        <symbol id="icon-linkedin2" viewBox="0 0 32 32">
        <path d="M12 12h5.535v2.837h0.079c0.77-1.381 2.655-2.837 5.464-2.837 5.842 0 6.922 3.637 6.922 8.367v9.633h-5.769v-8.54c0-2.037-0.042-4.657-3.001-4.657-3.005 0-3.463 2.218-3.463 4.509v8.688h-5.767v-18z"></path>
        <path d="M2 12h6v18h-6v-18z"></path>
        <path d="M8 7c0 1.657-1.343 3-3 3s-3-1.343-3-3c0-1.657 1.343-3 3-3s3 1.343 3 3z"></path>
        <symbol id="icon-arrow-up" viewBox="0 0 24 24">
            <path d="M17.71 11.29l-5-5a1 1 0 00-.33-.21 1 1 0 00-.76 0 1 1 0 00-.33.21l-5 5a1 1 0 001.42 1.42L11 9.41V17a1 1 0 002 0V9.41l3.29 3.3a1 1 0 001.42 0 1 1 0 000-1.42z"/>
        </symbol>
        <symbol id="icon-user" viewBox="0 0 24 24">
        <path d="M15.71 12.71a6 6 0 10-7.42 0 10 10 0 00-6.22 8.18 1 1 0 002 .22 8 8 0 0115.9 0 1 1 0 001 .89h.11a1 1 0 00.88-1.1 10 10 0 00-6.25-8.19zM12 12a4 4 0 114-4 4 4 0 01-4 4z"/>
        </symbol>
        <symbol id="icon-user-plus" viewBox="0 0 32 32">
        <path d="M12 23c0-4.726 2.996-8.765 7.189-10.319 0.509-1.142 0.811-2.411 0.811-3.681 0-4.971 0-9-6-9s-6 4.029-6 9c0 3.096 1.797 6.191 4 7.432v1.649c-6.784 0.555-12 3.888-12 7.918h12.416c-0.271-0.954-0.416-1.96-0.416-3z"></path>
        <path d="M23 14c-4.971 0-9 4.029-9 9s4.029 9 9 9c4.971 0 9-4.029 9-9s-4.029-9-9-9zM28 24h-4v4h-2v-4h-4v-2h4v-4h2v4h4v2z"></path>
        </symbol>
        <symbol id="icon-user-minus" viewBox="0 0 32 32">
        <path d="M12 23c0-4.726 2.996-8.765 7.189-10.319 0.509-1.142 0.811-2.411 0.811-3.681 0-4.971 0-9-6-9s-6 4.029-6 9c0 3.096 1.797 6.191 4 7.432v1.649c-6.784 0.555-12 3.888-12 7.918h12.416c-0.271-0.954-0.416-1.96-0.416-3z"></path>
        <path d="M23 14c-4.971 0-9 4.029-9 9s4.029 9 9 9c4.971 0 9-4.029 9-9s-4.029-9-9-9zM28 24h-10v-2h10v2z"></path>
        </symbol>
    </defs>
</svg>