<svg xmlns="http://www.w3.org/2000/svg" viewBox="-150 -38 278 197"><path d="M-101.7 62.7c.7-.4 1.4-.5 2-.8-.5.4-1.1.8-1.7 1.2-2.6 1.5-5.4 2.5-8.4 3.2.7-.1 1.3-.2 2-.3.7-.2 1.3-.3 2-.5-1.2.4-2.5.7-3.7 1-.7.2-1.3.3-2 .4l-1 .2c-.3.1-.7.1-1 .1h1l1-.1 1-.1c.3 0 .7-.1 1-.1 2.3-.3 4.5-1 6.7-1.9 2.4-1 4.8-2.3 6.9-4 2.1-1.6 4-3.6 5.5-5.6.9-1.2 1.6-2.4 2.3-3.5.9-.7 1.9-1.3 2.8-1.8h-.1c1.1-1 2.2-1.7 3.3-2.1 1.1-.4 2.3-.4 3.5-.1 1.2.3 2.5 1 3.8 1.7 1.4.8 2.8 1.7 4.4 2.5 1.5.7 3.3 1.4 5.3 1.5h1.5c.5 0 1-.1 1.5-.3 1-.2 1.9-.7 2.8-1.2.9-.5 1.6-1.2 2.3-1.9.6-.7 1.2-1.4 1.7-2.1 1-1.4 1.7-2.9 2.4-4.3 1.1-2.3 2.2-4.5 3.4-6.3 1.2-1.8 2.5-3.3 3.9-4 1.4-.7 2.9-.9 4.8-.4 1.9.4 3.9 1.4 6 2.4 2.1 1.1 4.3 2.3 6.9 3.3 1.3.5 2.6.9 4.1 1.2 1.5.3 3.1.4 4.7.2 1.4-.2 2.7-.5 4-1.1 1.2-.6 2.4-1.4 3.3-2.3 2-1.8 3.3-3.8 4.3-5.8s1.9-3.9 2.7-5.7c.8-1.8 1.7-3.4 2.7-4.7 2-2.5 4.3-3.3 7.4-2.5 1.5.4 3.2 1.2 5 2.1 1.7.9 3.6 1.9 5.6 2.9 2 .9 4.3 1.8 7 2 1.3.1 2.7 0 4.1-.3 1.3-.3 2.6-.8 3.8-1.5 2.3-1.4 4-3.2 5.4-4.9 1.4-1.8 2.6-3.5 3.7-5.1 1.1-1.6 2.3-3 3.5-4 1.2-1 2.4-1.5 3.7-1.7 1.3-.1 2.9.1 4.6.7 1.7.5 3.6 1.3 5.6 2.1 2.2.8 4.6 1.6 7.4 1.7h1.1l1.1-.1c.7 0 1.4-.3 2.1-.4.4-.1.7-.2 1-.3l1-.4c.6-.3 1.2-.7 1.8-1 2.3-1.5 4-3.4 5.5-5.1 1.5-1.8 2.8-3.5 4.2-5 1.3-1.5 2.7-2.8 4.1-3.6 1.4-.8 3-1.3 4.8-1.5 1.8-.2 3.7-.1 5.8.1 2 .2 4.1.6 6.3 1 1.6.3 3.2.5 5 .7 1.8.1 3.6.1 5.4-.1 1.8-.2 3.5-.5 5.2-1.1 1.7-.6 3.3-1.3 4.6-2.4.5-.4 1-.9 1.4-1.2.4-.4.8-.9 1.1-1.3.3-.4.5-.9.7-1.3.2-.4.3-.8.4-1.1.2-.5.3-1.1.2-1.7 0-.4-.1-.7-.3-.8-.3-.3-.8 0-1.5.6l-.2.3-.3.3c-.2.2-.4.4-.7.6-.5.4-1.1.9-1.8 1.4-1.6 1-3.4 1.5-5.8 2.1-1.8.4-3.8.6-5.8.6s-4-.3-6.1-.7c-4.2-.7-8.6-1.8-13.3-1.7-1.6 0-3.3.2-5 .7C85-9.8 83.4-9 81.9-8c-1.5 1-2.7 2.2-3.9 3.4-1 .9-2 2.1-3 3.3-1.8 2.2-3.6 4.2-5.5 5.4-.2.2-.5.3-.7.4-.2.1-.5.3-.7.3l-.7.3c-.3 0-.5.1-.7.2-1 .2-2.1.2-3.1-.1-1.1-.2-2.3-.6-3.6-1.1l-4-1.6c-1.4-.6-3-1.1-4.6-1.5-1.7-.4-3.6-.5-5.6-.3-1.6.2-3.2.8-4.6 1.6-1.4.8-2.6 1.8-3.6 2.8-2 2-3.4 4.2-4.8 6.2s-2.6 3.8-4.1 5.1c-1.4 1.3-2.8 2-4.5 2.1-2 .1-4.5-.9-7-2.1-1.9-1-4-2.1-6.2-3.1-1.1-.5-2.3-1-3.6-1.4-1.3-.4-2.7-.6-4.2-.6s-3 .3-4.4.8c-1.4.5-2.7 1.3-3.8 2.3-2.2 2-3.5 4.3-4.6 6.4-1.1 2.2-2 4.3-2.9 6.2-.9 1.9-2 3.7-3.2 4.9-1.2 1.2-2.7 1.9-4.3 2.1-1.6.1-3.5-.3-5.5-1.1-3-1.1-6-2.9-9.4-4.4-1.7-.7-3.6-1.4-5.6-1.7-2.1-.3-4.4-.1-6.4.8-1 .4-1.9 1-2.8 1.6-.8.7-1.5 1.4-2.2 2.2-1.3 1.6-2.1 3.2-2.9 4.8-1.5 3.2-2.6 6.4-4.2 9-.8 1.3-1.7 2.3-2.8 2.9-.5.3-1.1.5-1.7.6-.2 0-.3.1-.5.1h-.5c-.3 0-.6 0-1-.1-1.3-.2-2.7-.8-4.2-1.6-1.4-.8-2.9-1.7-4.6-2.4-1.1-.5-2.2-.9-3.4-1.2-1.3-.3-2.5-.3-3.8-.1-1.3.2-2.5.7-3.6 1.3-1.1.6-2 1.4-2.9 2.1-3.4 3.2-5.5 7-8.5 9.7-5.9 5.6-14.5 8.2-22.6 7-2-.3-4.1-.6-6-1.3 1.3.9 2.6 1.7 4.4 2.3.3.1.7.2 1.3.3l1.7.2c-.6-.1-1.3-.1-1.9-.2l-1.8-.3c-.8-.1-1.6-.3-2.3-.5-.7-.2-1.5-.4-2.2-.6 2.9 1.5 6.2 2.5 9.6 3 .1 0 .9-.1 1.5-.2.4 0 .9-.1 1.4-.1l.7-.1.7-.1c.7-.2 1.4-.4 2.2-.6.7-.3 1.5-.5 2.3-.8.4-.1.8-.3 1.3-.4l1.4-.5.7-.3.8-.3c.5.1 1.1-.1 1.6-.3zm82-25.3c-1.4.2-3 0-4.4-.4-.3-.1-.5-.2-.8-.3 1.3.3 2.6.5 3.9.5.8 0 1.5-.1 2.3-.3.3-.1.7-.2 1-.3l.5-.2.5-.2c1.2-.6 2.3-1.4 3.1-2.4.9-1 1.6-2.1 2.3-3.2h.2c-.7 1.3-1.6 2.6-2.6 3.6-1 1.1-2.3 2-3.7 2.5-.2.1-.4.1-.6.2l-.7.1c-.4.1-.5.3-1 .4zm-40 12.2c-.6.5-1.3.9-2.1 1.1.7-.4 1.3-.9 2-1.4 1.8-1.5 3-3.6 4.1-5.7 1-2.1 1.9-4.3 3-6.5 1.1-2.1 2.4-4.2 4.3-5.7s4.4-2.2 6.8-1.9c1.8.1 3.4.7 5.1 1.3 1.6.7 3.2 1.4 4.7 2.2.6.3 1.1.7 1.7 1-.6-.3-1.2-.5-1.8-.8-1.5-.8-3.1-1.5-4.7-2.2-1.6-.6-3.2-1.2-4.9-1.3-.5-.1-1 0-1.4.1-.4.1-.8.2-1.1.3-.3.1.1.2.1.3-1 0-2.1.3-2.9.7-.7.3-1.1.4-1.6.6-.5.6-1 1.3-1.4 2-.2.4-.4.8-.5 1.2l-.4.4c.3-.6.6-1.1 1-1.7-1.1.7-1.9 2-2.6 3.5-.7 1.5-1.3 3.1-1.9 4.5h.4l-.3.6-.1-.7c-.7 1.4-1.4 2.9-2.2 4.3-1 1.4-2 2.8-3.3 3.8zm-13.5-2.2c2.3 1.3 4.5 2.9 7.2 3.4-1.5-.3-2.9-.9-4.2-1.5-1.3-.7-2.7-1.4-4-2.1-.4-.2-.8-.4-1.3-.6-1.5-.7-3-1.2-4.7-1.2 1.8-.2 3.6.4 5.1.9.9.5 1.4.8 1.9 1.1zm71.8-32c-1.7 1-3 2.5-4 4.1-.9 1.4-1.6 2.9-2.3 4.5L-9 26.7c.3-.9.5-1.7.9-2.7.3-.8.7-1.6 1.1-2.4.4-.8.9-1.8 1.6-2.8.8-1 2.2-2.5 4-3.4zm-85.4 33.4C-88 50.1-89 51.5-90 53c-.3.4-.9 1-1.4 1.5.9-1.3 1.7-2.6 2.7-4 .4-.4.7-.7 1-.9.3-.4.6-.6.9-.8zM23.6 23.2c-1.4 0-3-.2-4.1-.6-2.1-.7-3.7-1.8-5.4-2.8.6.3 1.2.5 1.7.7 2.5 1.4 5 2.5 7.8 2.7zm-41.5 14.7c-1.7.5-3.5.7-5.3.4-.9-.1-2-.6-2.9-1.1 1.4.4 2.9.8 4.1.8 1.6.3 2.9.2 4.1-.1zm-.3 1.4c1.4-.3 2.7-.8 3.9-1.6 1.2-.7 2.2-1.7 3-2.7.2-.3.4-.5.7-.8l.7-.8c-.5.8-1.1 1.6-1.8 2.3-.7.7-1.4 1.4-2.2 1.9-1.7 1.1-3.1 1.5-4.3 1.7zm40-17.3c-.6-.1-1.2-.1-1.7-.3-2.1-.6-3.9-1.7-5.7-2.6 1 .5 2.1 1 3.5 1.6 1.1.5 2.5 1 3.9 1.3zm-56.3 11.4c-1-.4-2.1-.8-3.1-1.2-1.1-.4-2.1-.9-3.2-1.1 1 .1 2 .4 3 .7 1.1.5 2.2 1.1 3.3 1.6zm-43.3 14.3l-.5-.1h-1.4c-1 0-1.9.1-2.9.5.7-.3 1.4-.6 2.3-.7h.6c.2 0 .4 0 .6.1.4 0 .9 0 1.3.2zm30.4-13.2c-.2.3-.4.6-.5.8-1.1 1.2-2.1 2.8-3 4.5.4-.9.8-1.8 1.5-3.1.5-.7 1.2-1.6 2-2.2zm38.5-5c.3-.6.6-1 .9-1.5-.4.9-.8 1.8-1.3 2.8-.3.5-.6 1.1-1.7 2.5.5-.7.9-1.5 1.3-2.3l.8-1.5zm-12.3 10.1c-1 0-2-.1-3-.3-.9-.2-1.8-.5-2.6-.9.9.3 1.8.6 2.9.8.8.2 1.7.3 2.7.4zm-74.5 20.1c-.4.4-.8.7-1.2 1.1-.4.4-.8.7-1.3 1-.5.3-1.2.7-1.8.9.6-.4 1.2-.9 1.9-1.4.5-.3.9-.6 1.3-.8.3-.3.7-.5 1.1-.8zM68.9 9.3c.6-.2 1.3-.4 1.9-.7l.9-.4c.3-.2.5-.3.8-.5-.3.2-.6.5-.9.7-.3.2-.6.4-.9.5-1.3.6-2.6 1.1-5.1 1.2l1.3-.2c.4 0 .7-.2.9-.2.5-.2.8-.3 1.1-.4zM-43.4 31.1c-.3 0-.5.1-.7.2-.2.1-.5.2-.7.2-.3.1-.5.1-.7.2l-.4.1-.3.1.3-.2.3-.2.4-.2.4-.2c.2 0 .5-.1.7-.1.3.1.5.1.7.1zm36.9-3.9l-1.2 2.4.6-1.5 1.2-2.7.1-.1c-.2.7-.5 1.3-.7 1.9zm-2.3 3.1c.2-.3.4-.5.6-.8-.4.8-.8 1.7-1.3 2.5-.2.3-.4.5-1 1.3.9-1.3 1.3-2.2 1.7-3zM53 5c.7.2 1.4.4 2 .7.6.2 1 .5 1.5.8-.7-.3-1.4-.5-2.4-.9-.2-.2-.6-.4-1.1-.6zM-51.6 38.2c.6-1.2 1.2-2.4 2-3.5.3-.4.6-.7.9-1-.4.5-.7 1-.8 1.1-1 1.4-1.5 2.4-2.1 3.4zm21.4-1.3c-.4-.1-.8-.3-1.2-.4-.7-.3-1.3-.7-1.9-1l1.7.7 1.4.7zM63.1 8.4c.5 0 1 .1 1.5.1h.7c.2 0 .5-.1.7-.1.4 0 .8 0 1.2-.1-.4.1-.7.2-1.1.3l-.6.1h-.6c-.7-.1-1.3-.2-1.8-.3zm-119 36.9c.2-.4.5-.7.7-1l-.9 1.8c-.3.4-.5.8-1.5 2.1 1.1-1.6 1.3-2.3 1.7-2.9zm-6.9 7.6c.9-.1 1.8-.4 2.7-.8l-.6.3c-.5.2-1 .4-1.7.5-.3.1-.7.1-1.1.2-.4 0-.9.1-1.4 0 1.3 0 1.7-.1 2.1-.2zm9.4-9.2c.1-.3.3-.5.4-.8-.2.5-.4 1-.7 1.5-.1.2-.2.3-.5.7l.8-1.4zm-33.5 5.9s.4-.4.5-.7c.3-.2.6-.4.8-.5.1 0-.3.4-.7.8-.2.2-.5.4-.6.4zm-9.9 10.2c.3-.2.7-.5.8-.5.1 0-.4.5-.6.6-.3.2-.6.4-1 .6.4-.3.7-.6.8-.7zm51.4-26.9c.2-.1.4-.1.6-.1-.3.1-.5.3-.7.4-.1 0-.2.1-.3.1l-.3.1c.2-.2.5-.4.7-.5zM3 15.7c-.5 0-1 .1-1.6.2.1-.1.3-.1.4-.2.3 0 .5 0 .8-.1h.8c-.1 0-.3.1-.4.1zm-14.2 17.2l.7-1c-.2.4-.4.8-.7 1.1-.3.4-.5.7-1.2 1.4.7-.7.9-1.1 1.2-1.5zm-61.1 16.6l-.9-.3-.5-.3c.1 0 .3 0 .5.1.5.3.7.4.9.5zM7.8 16.9c.3.1.4.2.5.4-.2-.1-.5-.2-.7-.3-.3-.1-.5-.3-1-.5.6.1 1 .3 1.2.4zm-47.7 15.3c-.4-.1-.7-.1-1.1-.2-.2 0-.3-.1-.5-.1l-.5-.1h1c.5.1.8.3 1.1.4zm10 3.4c.2.1.4.3.5.4 0 0-.5-.2-.7-.3-.3-.2-.6-.3-1-.6.6.2 1 .3 1.2.5zM-.8 18.1l-.4.4c-.1.1-.3.2-.4.3.2-.2.3-.4.5-.6l.3-.1zm-125.9 117.1c.7-.2 1.4-.3 2-.4-.6.3-1.1.6-1.8.8-2.6 1-5.4 1.6-8.2 1.9.6 0 1.3-.1 1.9-.1l1-.1c.3 0 .6-.1 1-.1-.3.1-.6.1-.9.2-.3 0-.6.1-.9.1-.6.1-1.2.2-1.8.2-.7.1-1.3.2-1.9.2l-1.9.1 1.9.2h1.9c2.1-.1 4.3-.4 6.5-1 4.8-1.2 9.4-3.4 13.2-6.6 1.1-.9 1.9-2 2.7-3 1-.5 1.9-1 2.9-1.4h-.1c.5-.4 1.1-.8 1.7-1.1.6-.3 1.1-.6 1.7-.8.3-.1.5-.1.8-.2.3 0 .5-.1.8-.1.5-.1 1.1 0 1.7.1 1.2.2 2.6.7 4.1 1.2.8.2 1.6.5 2.6.6.9.1 2 .2 3 0 .2 0 .5-.1.7-.1l.7-.2c.2-.1.5-.1.7-.2l.7-.3c.2-.1.5-.2.7-.4l.6-.4c.4-.3.8-.6 1.1-.9 1.3-1.3 2.2-2.7 3-4 .8-1.3 1.4-2.6 2.1-3.7.7-1.1 1.4-2.1 2.1-2.9 1.2-1.2 2.7-1.8 4.4-1.9 1.7-.1 3.8.1 5.9.5 2.2.3 4.4.8 6.9 1 2.5.2 5.2.3 8.1-.4 2.8-.7 5.3-2.3 7.3-3.9s3.7-3.4 5.3-5c1.3-1.4 2.6-2.6 3.9-3.7 1.3-1.1 2.6-1.9 3.9-2.5 1.3-.5 2.8-.8 4.5-.9 1.6-.1 3.4 0 5.3.1s3.8.3 5.9.4c2.1.1 4.3 0 6.6-.5 1.2-.2 2.3-.7 3.4-1.2.6-.3 1.1-.6 1.6-.9.5-.4 1-.7 1.5-1.1 1.9-1.5 3.3-3.1 4.5-4.6 1.2-1.5 2.4-2.8 3.5-3.8s2.1-1.4 3.2-1.5c1.3-.2 2.7.1 4.3.6 1.6.6 3.4 1.3 5.4 2 2 .7 4.4 1.3 7.1 1 1.3-.1 2.6-.5 3.8-1 1.2-.5 2.2-1.1 3.2-1.8 1.9-1.3 3.4-2.7 4.8-4 1.4-1.3 2.7-2.3 4.1-3.3 6.1-4.3 13.9-6.6 21.7-9.3l23.4-8c5.5-1.9 11.6-4.1 16.3-6.1 7.4-3.1 7.2-5.4.4-4.4-1.9.3-3.9.4-6.4 1.2-7.6 2.2-15.5 5.1-23.2 7.3-5.2 1.5-10.9 3.4-16.4 5.1-5.2 1.7-10.6 3.4-15.8 6-2.6 1.3-5.1 3-7.4 4.9-2.2 1.9-4.1 3.7-5.9 4.9-.7.5-1.5.8-2.1 1.1-.7.2-1.3.3-2.1.3-.4 0-.8-.1-1.2-.1-.4-.1-.8-.2-1.3-.3-.9-.2-1.9-.6-2.9-1-2.1-.8-4.4-1.8-7.4-2.1-1.5-.2-3.1-.1-4.6.3-1.6.4-3 1.1-4.2 2-1.5 1-2.6 2.2-3.7 3.4-1 1.1-1.9 2.2-2.8 3.2-1.3 1.5-2.5 2.8-3.9 3.5-1.4.8-3 1.2-4.8 1.3-1.8.1-3.8 0-6-.1-2.1-.1-4.3-.3-6.7-.3-2.3 0-4.8.3-7.3 1.2-2.5.9-4.6 2.3-6.4 3.8-3.6 3.1-6.2 6.5-9.2 8.9-1.1.9-2.3 1.7-3.5 2.2-.3.2-.6.2-.9.3l-.5.2-.2.2c-.6.1-1.3.2-2 .3-2.8.2-5.9-.4-9.1-.8-1.6-.2-3.3-.4-5-.4-1.8 0-3.6.1-5.5.7-.9.3-1.8.7-2.7 1.2-.8.5-1.6 1.1-2.3 1.8-1.4 1.4-2.3 2.9-3.1 4.4-.8 1.5-1.5 2.9-2.2 4.2-.7 1.3-1.5 2.4-2.4 3.1-.2.2-.5.4-.7.5l-.4.2-.4.1c-.5.2-1.1.3-1.7.3-1.2 0-2.7-.4-4.2-.9-1-.3-2-.6-3.2-.7-1.2-.2-2.4-.2-3.6.1-1.2.2-2.3.7-3.3 1.2s-1.9 1.2-2.8 1.9c-1.7 1.3-3.1 2.8-4.6 4.1-.7.7-1.5 1.2-2.2 1.8l-1.2.8-.6.4-.6.4c-6.6 4-14.7 5.3-22.2 3.8-1-.2-1.9-.4-2.8-.6-.9-.2-1.9-.5-2.8-.8.6.4 1.2.9 1.8 1.3.7.4 1.3.8 2.1 1.2.5.2 1.8.5 2.8.7-1.2-.1-2.4-.5-3.5-.7l-2.2-.5-2.1-.6c2.7 1.5 5.7 2.7 8.8 3.3.1 0 .8-.1 1.4-.1h2.6c1.4-.2 2.7-.5 4.3-.9l.6-.1.6-.2c.4-.1.9-.2 1.4-.3.5-.1 1-.2 1.5-.4.7-.3 1.3-.4 1.8-.6zm81.8-34.2c-.8.9-1.8 2-2.8 2.9-.2.2-.4.3-.6.4.9-.9 1.7-1.8 2.5-2.7l1.4-1.6c.4-.5.8-1 1.3-1.5 1.7-1.8 3.6-3.5 5.9-4.7 0 0 .2.1.1.1-2.5 1.4-4.5 3.3-6.5 5.3l-.9.9c-.1.3 0 .6-.4.9zm-41.5 16.4c-.4.6-.8 1.3-1.2 1.9l.9-2.1c1.1-1.9 2.1-4 3.5-5.7.7-.9 1.5-1.7 2.5-2.3 1-.6 2-1.1 3.1-1.3 2.2-.5 4.5-.4 6.7-.2 2.2.3 4.4.7 6.6 1 3.2.4 6.5.6 9.6-.6l.9-.3.9-.3-.8.5c-.3.2-.5.3-.8.4l-1.2.4-1.2.3c-.8.1-1.6.2-2.4.2-1.6.1-3.2-.1-4.8-.3-.9-.1-1.9-.1-2.5 0-.3 0 0 .2 0 .3-1-.3-2.1-.5-2.9-.8-.7-.2-1-.4-1.5-.6-.8 0-1.6.1-2.3.2l-1.2.3c-.2 0-.3 0-.5-.1.6-.1 1.2-.2 1.8-.2-1.1-.4-2.6-.4-4.1 0-1.5.4-2.8 1.3-3.9 2.2l.4.2-.5.4c0-.2.1-.5.1-.7-1.1.9-2 2.1-2.8 3.4-1 1.1-1.7 2.5-2.4 3.8zm-11.1 5.4c1.2.3 2.4.6 3.7.5 1.2 0 2.5-.5 3.5-1.2-1.1.9-2.5 1.4-3.9 1.4s-2.8-.3-4.2-.7c-.4-.1-.9-.3-1.3-.4-1.5-.4-3-.9-4.5-.8 1.7-.3 3.4.1 4.9.4.8.4 1.3.6 1.8.8zm77.2-30.2l-5.4-.3c-1.6-.1-3.1-.1-4.7 0-.9.1-1.9.2-2.8.4.8-.3 1.7-.5 2.6-.7 1.5-.2 3.2-.2 5.4 0l4.9.6zm-90.3 32.2c-1.2 1.1-2.3 2.3-3.5 3.6-.3.3-1 .8-1.6 1.1 1-1 2-2.1 3.1-3.4.8-.5 1.4-.9 2-1.3zM1.3 82.5c-.8.7-1.5 1.6-2.2 2.3-1.3 1.3-2.5 2.6-3.8 3.9.4-.5.8-1 1.1-1.4 1.7-1.9 3.2-3.6 4.9-4.8zm-44.5 18.1c-.9 1.1-1.8 2.3-2.9 3.4-.5.6-1.4 1.1-2.2 1.7l1.4-1.4 1.2-1.3 2.5-2.4zm.6 1.3c1.4-1.5 2.8-2.9 4.3-4.1.4-.3.8-.5 1.2-.7-1.1.8-2.2 1.8-3.1 2.6-1 .9-1.7 1.5-2.4 2.2zM-.5 82.7c-.3.4-.7.9-1 1.2-1.3 1.4-2.5 2.9-3.9 4.3.7-.8 1.4-1.7 2.3-2.8.7-.8 1.6-1.8 2.6-2.7zm-55.9 27.4c-1.1.3-2.3.5-3.5.5-1.3 0-2.4-.2-3.6-.4 1.1.1 2.1.1 3.3 0 1.4.1 2.6.1 3.8-.1zm-45.6 13.8c-.6-.1-1.2-.1-1.8-.1-.9 0-1.8.1-2.7.5.7-.3 1.3-.6 2.2-.7.8 0 1.5.1 2.3.3zm29.5-13.4c-.3 0-.7.1-1 .1-1.7-.1-3.2-.1-4.5.3.6-.3 1.3-.5 2.6-.7.8 0 1.8.1 2.9.3zm37.7-15.8c.5-.1 1-.2 1.4-.2-.8.3-1.5.6-2.2.9-.2.1-.4.2-.8.3l-.6.3c-.2.1-.5.2-.8.4.4-.3.7-.5 1-.7.3-.2.5-.4.8-.5.4-.1.8-.3 1.2-.5zm-9.3 8.9c-.5.6-1.1 1.2-1.7 1.8-.3.3-.6.6-.9.8-.3.3-.6.5-1 .8.3-.3.6-.6 1-.9l1-1c.5-.5 1-1 1.6-1.5zm-76.5 29.9c-.4.3-.9.5-1.3.8-.4.3-.9.5-1.4.7-.5.2-1.2.4-1.9.5l2-1c.9-.3 1.7-.6 2.6-1zM45.1 70.2c1.1-.4 2.1-.6 3.1-.9-.5.2-1.1.5-1.6.7-1.1.4-2.1.8-4 1.5 1.3-.8 2-1.1 2.5-1.3zM-66.3 110c-.6 0-1.2 0-1.7-.1-.6-.1-1.1-.3-1.6-.4l1.8.1 1.5.4zm34.1-14.8c-.3.1-.7.1-1 .2l-1 .2c.4-.1.7-.4 1.1-.4l1.1-.2c.4 0 .8-.1 1.2-.1l.1.1-.8.1c-.2 0-.4.1-.7.1zm-3 .2c.2-.1.5-.1.7-.1-.3.1-.6.3-1 .4l-.5.2c-.2.1-.3.2-.5.3-.2.1-.5.2-1.1.5.5-.4.9-.6 1.3-.8.5-.2.8-.3 1.1-.5zm66.9-18.5l1.4-1.4c.5-.4.9-.6 1.4-.9-.5.5-1.1.9-1.8 1.6l-1 .7zm-109.3 32.5c1.1-.3 2.3-.5 3.5-.5.4 0 .9.1 1.3.1h-1.3c-1.5 0-2.5.2-3.5.4zm26.9-.3c-.4.3-.7.6-1.1.8-.7.3-1.4.7-2.2.9.6-.2 1.1-.5 1.8-.9.5-.2 1-.5 1.5-.8zm90.5-38c.8-.5 1.6-.9 2.5-1.4.3-.2.7-.3 1.1-.4-.6.4-1.3.7-2 1.1-.6.3-1.1.5-1.6.7zM-83.5 113c.2-.3.5-.5.7-.8-.3.5-.6 1-1 1.5-.2.4-.5.7-1.2 1.9.8-1.5 1.2-2 1.5-2.6zm-3.2 8.5l.7-.9.7-.9c-.1.2-.1.3-.2.5l-.4.6-.5.6c-.2.3-.4.5-.6.8-.2.3-.5.6-.9.9.4-.4.6-.8.8-1 0-.1.4-.6.4-.6zm5.8-9.2c.2-.2.3-.3.5-.4-.3.2-.5.6-.8.9l-.5.5c.3-.5.6-.7.8-1zm-29.8 13.3l.6-.6c.3-.1.6-.3.8-.4.1 0-.3.3-.7.7-.3.2-.6.4-.7.3zm-10.9 7.8c.3-.1.7-.3.8-.3.1 0-.4.4-.6.5-.3.1-.6.2-1.1.4.4-.3.7-.5.9-.6zm52.2-22.6c.3.1.5.2.7.3-.4 0-.8-.1-1.1-.1-.3 0-.5-.1-.8-.2.5-.1 1-.1 1.2 0zM-16 94.1l-.9.1h-.9c.2 0 .3-.1.5-.1h1.8c-.2-.1-.3 0-.5 0zM-38 96c.3-.2.6-.3.9-.5l-.9.6-1.2.8c.6-.5.9-.7 1.2-.9zm-58.1 28.6h-1l-.6-.2c.1 0 .3-.1.5-.1.6.1.9.2 1.1.3zM-10.5 93c.3-.1.5-.1.7-.1-.2.2-.6.3-.8.4-.3.1-.6.2-1.3.3.8-.3 1.2-.5 1.4-.6zm-51.8 18.2c-.4 0-.8 0-1.3-.1-.4 0-.7-.1-1.1-.2l1.2.1c.5.1.8.1 1.2.2zm10.7-3.2c.2-.1.4-.2.6-.2 0 0-.4.3-.6.4-.4.2-.7.4-1.1.5.6-.3.9-.5 1.1-.7zm30.2-12.7h-.8c-.2 0-.4-.1-.6-.1h1c.2 0 .3 0 .4.1z" fill="#8167a9" opacity=".1"/></svg>